<?xml version="1.0" encoding="utf-8"?>
<!-- Generator: Adobe Illustrator 19.0.1, SVG Export Plug-In . SVG Version: 6.00 Build 0)  -->
<svg version="1.1"
	 id="svg2" xmlns:svg="http://www.w3.org/2000/svg" xmlns:cc="http://creativecommons.org/ns#" xmlns:dc="http://purl.org/dc/elements/1.1/" xmlns:sodipodi="http://sodipodi.sourceforge.net/DTD/sodipodi-0.dtd" xmlns:inkscape="http://www.inkscape.org/namespaces/inkscape" xmlns:rdf="http://www.w3.org/1999/02/22-rdf-syntax-ns#" sodipodi:docname="WeChat logo.svg" inkscape:version="0.91 r13725"
	 xmlns="http://www.w3.org/2000/svg" xmlns:xlink="http://www.w3.org/1999/xlink" x="0px" y="0px" viewBox="-195 17 480 480"
	 style="enable-background:new -195 17 480 480;" xml:space="preserve">
<style type="text/css">
	.st0{fill:#DAB595;}
	.st1{fill:#FFFFFF;}
</style>
<g id="g4144" transform="scale(0.12,0.12)">
	<path id="path4" inkscape:connector-curvature="0" class="st0" d="M2312.5,2141.7c0,1070.1-867.4,1937.5-1937.5,1937.5h0
		c-1070.1,0-1937.5-867.4-1937.5-1937.5v0c0-1070.1,867.4-1937.5,1937.5-1937.5h0C1445.1,204.2,2312.5,1071.6,2312.5,2141.7
		L2312.5,2141.7z"/>
	<g id="g6">
		<path id="path8" inkscape:connector-curvature="0" class="st1" d="M853.8,1778.9c-228.2,11.9-426.6,81.1-587.7,237.4
			C103.3,2174.2,29,2367.6,49.3,2607.5c-89.2-11-170.4-23.2-252.1-30.1c-28.2-2.4-61.7,1-85.6,14.5
			c-79.3,44.8-155.4,95.3-245.5,151.7c16.5-74.8,27.2-140.3,46.2-203.3c13.9-46.3,7.5-72.1-35.2-102.2
			c-273.9-193.4-389.4-482.8-303-780.8c80-275.7,276.3-442.9,543.1-530c364.1-118.9,773.3,2.4,994.8,291.5
			C791.8,1523,840.8,1640.2,853.8,1778.9z M-196.5,1686c2.1-54.5-45.1-103.6-101.2-105.2c-57.4-1.7-104.7,42.2-106.3,98.8
			c-1.7,57.4,42.2,103.3,100,104.8C-246.7,1785.8-198.6,1741.9-196.5,1686z M351.5,1580.7c-56.3,1-103.9,49-102.9,103.7
			c1,56.7,47.7,101.1,105.6,100.4c58-0.7,102.1-45.5,101.5-103.5C455.3,1624.5,408.8,1579.7,351.5,1580.7z"/>
		<path id="path10" inkscape:connector-curvature="0" class="st1" d="M1366.5,3201.5c-72.3-32.2-138.5-80.4-209.1-87.8
			c-70.3-7.3-144.2,33.2-217.7,40.7c-224,22.9-424.7-39.5-590.2-192.6c-314.8-291.1-269.8-737.5,94.4-976.1
			c323.7-212,798.3-141.4,1026.5,152.9c199.1,256.7,175.7,597.5-67.4,813.2c-70.3,62.4-95.7,113.8-50.5,196.1
			C1360.7,3163.1,1361.7,3182.3,1366.5,3201.5L1366.5,3201.5z M544,2405.1c46,0,83.9-36,85.6-81.4c1.8-48.1-36.9-88.5-85-88.6
			c-47.7-0.2-87.6,40.7-86,88.1C460.1,2368.5,498.3,2405.1,544,2405.1L544,2405.1z M1074.2,2235.3c-44.6-0.3-82.6,36.2-84.4,81.3
			c-1.9,48.2,35.6,87.8,83.3,88c46.2,0.2,82.6-34.8,84.3-80.7C1159.2,2275.5,1121.7,2235.6,1074.2,2235.3z"/>
	</g>
</g>
</svg>
